<svg width="40" height="40" viewBox="0 0 40 40" fill="none" xmlns="http://www.w3.org/2000/svg">
<g id="icon/image/filter_9_plus_24px">
<path id="icon/image/filter_9_plus_24px_2" fill-rule="evenodd" clip-rule="evenodd" d="M11.6666 1.66663H34.9999C36.8332 1.66663 38.3332 3.16663 38.3332 4.99996V28.3333C38.3332 30.1666 36.8332 31.6666 34.9999 31.6666H11.6666C9.83324 31.6666 8.33324 30.1666 8.33324 28.3333V4.99996C8.33324 3.16663 9.83324 1.66663 11.6666 1.66663ZM1.66663 9.99995C1.66663 9.08328 2.41663 8.33328 3.33329 8.33328C4.24996 8.33328 4.99996 9.08328 4.99996 9.99995V33.3333C4.99996 34.2499 5.74996 34.9999 6.66663 34.9999H30C30.9166 34.9999 31.6666 35.7499 31.6666 36.6666C31.6666 37.5833 30.9166 38.3333 30 38.3333H4.99996C3.16663 38.3333 1.66663 36.8333 1.66663 34.9999V9.99995ZM23.3333 13.3333V20C23.3333 21.8333 21.8333 23.3333 20 23.3333H16.6667C15.75 23.3333 15 22.5833 15 21.6666C15 20.75 15.75 20 16.6667 20H20V18.3333H18.3333C16.5 18.3333 15 16.8333 15 15V13.3333C15 11.5 16.5 9.99997 18.3333 9.99997H20C21.8333 9.99997 23.3333 11.5 23.3333 13.3333ZM18.3332 14.9999V13.3333H19.9999V14.9999H18.3332ZM33.3333 28.3333H13.3333C12.4166 28.3333 11.6666 27.5833 11.6666 26.6666V6.66664C11.6666 5.74997 12.4166 4.99997 13.3333 4.99997H33.3333C34.25 4.99997 35 5.74997 35 6.66664V16.6537C34.993 15.7429 34.2457 15 33.3333 15H31.6667V13.3333C31.6667 12.4166 30.9167 11.6666 30 11.6666C29.0833 11.6666 28.3333 12.4166 28.3333 13.3333V15H26.6667C25.75 15 25 15.75 25 16.6666C25 17.5833 25.75 18.3333 26.6667 18.3333H28.3333V20C28.3333 20.9166 29.0833 21.6666 30 21.6666C30.9167 21.6666 31.6667 20.9166 31.6667 20V18.3333H33.3333C34.2457 18.3333 34.993 17.5903 35 16.6795V26.6666C35 27.5833 34.25 28.3333 33.3333 28.3333ZM35 16.6795C35 16.6752 35 16.6709 35 16.6666C35 16.6623 35 16.658 35 16.6537V16.6795Z" fill="white"/>
</g>
</svg>
