<svg xmlns:xlink="http://www.w3.org/1999/xlink" xmlns="http://www.w3.org/2000/svg" width="1000.0" height="464.539979948">
  <desc>Created by CircuitLab https://www.circuitlab.com/</desc><g transform="matrix(2.95885337547,0,0,2.95885337547,-6876.37524458,-3836.15340129)">
    <text style="font-family: Arial; font-size: 16px; font-weight: bold; text-anchor: start;" x="0" y="0" text-anchor="start" stroke="none" fill="#000000" transform="translate(2381.25,1375)">
      <tspan dy="7.2">9 V</tspan>
    </text>
    <path style="stroke-linecap: round; stroke-miterlimit: 4;" fill="none" stroke="#000000" d="M50,25L0,25" stroke-width="2" stroke-linecap="round" stroke-miterlimit="4" transform="translate(2325,1325)"/>
    <path style="stroke-linecap: round; stroke-miterlimit: 4;" fill="none" stroke="#000000" d="M25,24.5L25,0" stroke-width="2" stroke-linecap="round" stroke-miterlimit="4" transform="translate(2325,1325)"/>
    <path style="stroke-linecap: round; stroke-miterlimit: 4;" fill="none" stroke="#000000" d="M37.5,35L12.5,35" stroke-width="2" stroke-linecap="round" stroke-miterlimit="4" transform="translate(2325,1325)"/>
    <path style="stroke-linecap: round; stroke-miterlimit: 4;" fill="none" stroke="#000000" d="M37.5,75L12.5,75" stroke-width="2" stroke-linecap="round" stroke-miterlimit="4" transform="translate(2325,1325)"/>
    <path style="stroke-linecap: round; stroke-miterlimit: 4;" fill="none" stroke="#000000" d="M50,65L0,65" stroke-width="2" stroke-linecap="round" stroke-miterlimit="4" transform="translate(2325,1325)"/>
    <path style="stroke-linecap: round; stroke-miterlimit: 4;" fill="none" stroke="#000000" d="M25,75.5L25,100" stroke-width="2" stroke-linecap="round" stroke-miterlimit="4" transform="translate(2325,1325)"/>
    <path style="stroke-linecap: round; stroke-miterlimit: 4;" fill="none" stroke="#000000" d="M37.5,55L12.5,55" stroke-width="2" stroke-linecap="round" stroke-miterlimit="4" transform="translate(2325,1325)"/>
    <path style="stroke-linecap: round; stroke-miterlimit: 4;" fill="none" stroke="#000000" d="M50,45L0,45" stroke-width="2" stroke-linecap="round" stroke-miterlimit="4" transform="translate(2325,1325)"/>
    <path fill="#000000" stroke="none" d="M12.239297,9.99656L10.99166,9.99656L10.99166,15.41811L5.6154788,15.41811L5.6154788,16.66575L10.99166,16.66575L10.99166,22.0873L12.239297,22.0873L12.239297,16.66575L17.615479,16.66575L17.615479,15.41811L12.239297,15.41811L12.239297,9.99656" transform="translate(2325,1325)"/>
    <path style="stroke-linecap: round; stroke-miterlimit: 6;" fill="none" stroke="#000000" d="M25,21.87499L25,0" stroke-width="2" stroke-linecap="round" stroke-miterlimit="6" transform="translate(2475,1325)"/>
    <path style="stroke-linecap: round; stroke-miterlimit: 6;" fill="none" stroke="#000000" d="M25,78.12502L25,100" stroke-width="2" stroke-linecap="round" stroke-miterlimit="6" transform="translate(2475,1325)"/>
    <path style="stroke-linecap: round; stroke-miterlimit: 6;" fill="none" stroke="#000000" d="M25,21.87499L14.062504,26.56249L35.937495,35.93748L14.062504,45.31248L35.937495,54.68752L14.062504,64.06252L35.937495,73.43752L25,78.12502" stroke-width="2" stroke-linecap="round" stroke-miterlimit="6" transform="translate(2475,1325)"/>
    <text style="font-family: Arial; font-size: 16px; font-weight: bold; text-anchor: start;" x="0" y="0" text-anchor="start" stroke="none" fill="#000000" transform="translate(2518.75,1375)">
      <tspan dy="7.2">100 Ω</tspan>
    </text>
    <path style="stroke-linecap: round;" fill="none" stroke="#000000" d="M 2350 1300 L 2350 1325" stroke-width="2" stroke-linecap="round" class="cl_wire"/>
    <path style="stroke-linecap: round;" fill="none" stroke="#000000" d="M 2350 1300 L 2600 1300" stroke-width="2" stroke-linecap="round" class="cl_wire"/>
    <path style="stroke-linecap: round;" fill="none" stroke="#000000" d="M 2500 1300 L 2500 1325" stroke-width="2" stroke-linecap="round" class="cl_wire"/>
    <path style="stroke-linecap: round;" fill="none" stroke="#000000" d="M 2350 1425 L 2350 1450" stroke-width="2" stroke-linecap="round" class="cl_wire"/>
    <path style="stroke-linecap: round;" fill="none" stroke="#000000" d="M 2500 1425 L 2500 1450" stroke-width="2" stroke-linecap="round" class="cl_wire"/>
    <path style="stroke-linecap: round; stroke-miterlimit: 6;" fill="none" stroke="#000000" d="M25,21.87499L25,0" stroke-width="2" stroke-linecap="round" stroke-miterlimit="6" transform="translate(2575,1325)"/>
    <path style="stroke-linecap: round; stroke-miterlimit: 6;" fill="none" stroke="#000000" d="M25,78.12502L25,100" stroke-width="2" stroke-linecap="round" stroke-miterlimit="6" transform="translate(2575,1325)"/>
    <path style="stroke-linecap: round; stroke-miterlimit: 6;" fill="none" stroke="#000000" d="M25,21.87499L14.062504,26.56249L35.937495,35.93748L14.062504,45.31248L35.937495,54.68752L14.062504,64.06252L35.937495,73.43752L25,78.12502" stroke-width="2" stroke-linecap="round" stroke-miterlimit="6" transform="translate(2575,1325)"/>
    <text style="font-family: Arial; font-size: 16px; font-weight: bold; text-anchor: start;" x="0" y="0" text-anchor="start" stroke="none" fill="#000000" transform="translate(2618.75,1375)">
      <tspan dy="7.2">100 Ω</tspan>
    </text>
    <path style="stroke-linecap: round;" fill="none" stroke="#000000" d="M 2350 1450 L 2600 1450" stroke-width="2" stroke-linecap="round" class="cl_wire"/>
    <path style="stroke-linecap: round;" fill="none" stroke="#000000" d="M 2600 1425 L 2600 1450" stroke-width="2" stroke-linecap="round" class="cl_wire"/>
    <path style="stroke-linecap: round;" fill="none" stroke="#000000" d="M 2600 1300 L 2600 1325" stroke-width="2" stroke-linecap="round" class="cl_wire"/>
    <circle cx="2500" cy="1300" r="3" fill="#000000" stroke="#000000"/>
    <circle cx="2500" cy="1450" r="3" fill="#000000" stroke="#000000"/>
  </g>
</svg>
