<svg width="40" height="40" viewBox="0 0 40 40" fill="none" xmlns="http://www.w3.org/2000/svg">
<path fill-rule="evenodd" clip-rule="evenodd" d="M29.0261 30.6277C28.1233 31.3138 27.1844 31.9277 26.1372 32.3611L25.5233 36.2611C25.415 37.1277 24.6566 37.7777 23.7539 37.7777H17.6872C16.7844 37.7777 16.0261 37.1277 15.9178 36.225L15.3039 32.3611C14.2566 31.9277 13.3178 31.3138 12.415 30.6277L12.4511 30.7722L8.80387 32.1805C7.97331 32.5055 7.03442 32.1444 6.60109 31.3861L3.56776 26.1138C3.13442 25.3555 3.31498 24.3444 4.00109 23.8027L7.07053 21.3472L7.14276 21.4555C7.1247 21.3111 7.10439 21.1666 7.08407 21.0222C7.02314 20.5888 6.9622 20.1555 6.9622 19.7222C6.9622 19.2724 7.02784 18.8227 7.09099 18.39C7.10897 18.2668 7.12675 18.145 7.14276 18.025L7.07053 18.1333L4.00109 15.6777C3.31498 15.1361 3.13442 14.125 3.56776 13.3666L6.60109 8.0944C7.03442 7.29996 7.97331 6.97496 8.80387 7.29996L12.4872 8.70829L12.415 8.81663C13.3178 8.13051 14.2566 7.51663 15.3039 7.08329L15.9178 3.18329C16.0261 2.31663 16.7844 1.66663 17.6872 1.66663H23.7539C24.6566 1.66663 25.415 2.31663 25.5233 3.18329L26.1372 7.08329C27.1844 7.51663 28.1233 8.13051 29.0261 8.7444L28.9539 8.63607L32.6011 7.22774C33.4316 6.90274 34.3705 7.26385 34.8039 8.02218L37.8372 13.2944C38.2705 14.0527 38.09 15.0638 37.4039 15.6055L34.3344 18.0611L34.2622 17.9527C34.2803 18.0972 34.3006 18.2416 34.3209 18.3861C34.3818 18.8194 34.4428 19.2527 34.4428 19.6861C34.4428 20.1194 34.3818 20.5527 34.3209 20.9861C34.3006 21.1305 34.2803 21.275 34.2622 21.4194L34.3344 21.3111L37.4039 23.7666C38.09 24.3083 38.2705 25.3194 37.8372 26.0777L34.8039 31.35C34.3705 32.1444 33.4316 32.4694 32.6011 32.1444L28.9539 30.7361L29.0261 30.6277ZM20.7206 12.5C16.7483 12.5 13.4983 15.75 13.4983 19.7222C13.4983 23.6944 16.7483 26.9444 20.7206 26.9444C24.6928 26.9444 27.9428 23.6944 27.9428 19.7222C27.9428 15.75 24.6928 12.5 20.7206 12.5Z" fill="white"/>
</svg>
