<?xml version="1.0" standalone="yes"?>

<svg version="1.1" viewBox="0.0 0.0 960.0 720.0" fill="none" stroke="none" stroke-linecap="square" stroke-miterlimit="10" xmlns="http://www.w3.org/2000/svg" xmlns:xlink="http://www.w3.org/1999/xlink"><clipPath id="p.0"><path d="m0 0l960.0 0l0 720.0l-960.0 0l0 -720.0z" clip-rule="nonzero"></path></clipPath><g clip-path="url(#p.0)"><path fill="#000000" fill-opacity="0.0" d="m0 0l960.0 0l0 720.0l-960.0 0z" fill-rule="nonzero"></path><path fill="#000000" fill-opacity="0.0" d="m337.3071 502.6929l0 -285.3858l285.38583 285.3858z" fill-rule="nonzero"></path><path stroke="#000000" stroke-width="2.0" stroke-linejoin="round" stroke-linecap="butt" d="m337.3071 502.6929l0 -285.3858l285.38583 285.3858z" fill-rule="nonzero"></path><path fill="#000000" fill-opacity="0.0" d="m546.67194 462.6929l61.480286 0l0 48.0l-61.480286 0z" fill-rule="nonzero"></path><path fill="#000000" d="m561.81256 489.6129l0 -3.25l-5.90625 0l0 -1.53125l6.21875 -8.8125l1.359375 0l0 8.8125l1.84375 0l0 1.53125l-1.84375 0l0 3.25l-1.671875 0zm0 -4.78125l0 -6.140625l-4.25 6.140625l4.25 0zm5.0162964 1.21875l1.765625 -0.15625q0.1875 1.28125 0.890625 1.9375q0.71875 0.640625 1.71875 0.640625q1.203125 0 2.03125 -0.90625q0.84375 -0.90625 0.84375 -2.421875q0 -1.421875 -0.8125 -2.25q-0.796875 -0.828125 -2.09375 -0.828125q-0.796875 0 -1.453125 0.375q-0.640625 0.359375 -1.015625 0.953125l-1.578125 -0.203125l1.328125 -7.0l6.765625 0l0 1.609375l-5.4375 0l-0.734375 3.640625q1.234375 -0.84375 2.578125 -0.84375q1.78125 0 3.0 1.234375q1.234375 1.234375 1.234375 3.171875q0 1.84375 -1.078125 3.1875q-1.3125 1.65625 -3.578125 1.65625q-1.859375 0 -3.03125 -1.03125q-1.171875 -1.046875 -1.34375 -2.765625zm10.781982 -7.703125q0 -1.0625 0.75 -1.8125q0.765625 -0.75 1.8125 -0.75q1.078125 0 1.828125 0.75q0.765625 0.75 0.765625 1.8125q0 1.0625 -0.765625 1.828125q-0.75 0.75 -1.828125 0.75q-1.046875 0 -1.8125 -0.75q-0.75 -0.75 -0.75 -1.828125zm1.015625 0q0 0.65625 0.453125 1.125q0.46875 0.453125 1.109375 0.453125q0.640625 0 1.09375 -0.453125q0.46875 -0.46875 0.46875 -1.125q0 -0.640625 -0.46875 -1.09375q-0.453125 -0.46875 -1.09375 -0.46875q-0.640625 0 -1.109375 0.46875q-0.453125 0.453125 -0.453125 1.09375z" fill-rule="nonzero"></path><path fill="#000000" fill-opacity="0.0" d="m345.3071 460.60104l61.480316 0l0 48.0l-61.480316 0z" fill-rule="nonzero"></path><path fill="#000000" d="m355.35397 484.38043l1.59375 -0.15625q0.203125 1.140625 0.78125 1.65625q0.578125 0.5 1.484375 0.5q0.765625 0 1.34375 -0.34375q0.578125 -0.359375 0.953125 -0.953125q0.375 -0.59375 0.625 -1.59375q0.25 -1.0 0.25 -2.03125q0 -0.109375 -0.015625 -0.34375q-0.5 0.796875 -1.375 1.296875q-0.859375 0.5 -1.875 0.5q-1.6875 0 -2.859375 -1.21875q-1.171875 -1.234375 -1.171875 -3.234375q0 -2.078125 1.21875 -3.328125q1.234375 -1.265625 3.0625 -1.265625q1.328125 0 2.421875 0.71875q1.109375 0.703125 1.671875 2.03125q0.578125 1.328125 0.578125 3.828125q0 2.609375 -0.578125 4.15625q-0.5625 1.546875 -1.6875 2.359375q-1.109375 0.796875 -2.609375 0.796875q-1.59375 0 -2.609375 -0.890625q-1.0 -0.890625 -1.203125 -2.484375zm6.828125 -6.0q0 -1.4375 -0.765625 -2.28125q-0.765625 -0.859375 -1.84375 -0.859375q-1.109375 0 -1.9375 0.921875q-0.828125 0.90625 -0.828125 2.34375q0 1.3125 0.78125 2.125q0.796875 0.796875 1.9375 0.796875q1.171875 0 1.90625 -0.796875q0.75 -0.8125 0.75 -2.25zm3.281952 2.4375q0 -2.421875 0.5 -3.890625q0.5 -1.46875 1.46875 -2.265625q0.984375 -0.796875 2.46875 -0.796875q1.09375 0 1.921875 0.4375q0.828125 0.4375 1.359375 1.28125q0.546875 0.828125 0.84375 2.015625q0.3125 1.1875 0.3125 3.21875q0 2.390625 -0.5 3.859375q-0.484375 1.46875 -1.46875 2.28125q-0.96875 0.796875 -2.46875 0.796875q-1.96875 0 -3.078125 -1.40625q-1.359375 -1.703125 -1.359375 -5.53125zm1.71875 0q0 3.34375 0.78125 4.453125q0.796875 1.109375 1.9375 1.109375q1.15625 0 1.9375 -1.109375q0.78125 -1.125 0.78125 -4.453125q0 -3.359375 -0.78125 -4.46875q-0.78125 -1.109375 -1.953125 -1.109375q-1.15625 0 -1.828125 0.984375q-0.875 1.234375 -0.875 4.59375zm9.063232 -4.5625q0 -1.0625 0.75 -1.8125q0.765625 -0.75 1.8125 -0.75q1.078125 0 1.828125 0.75q0.765625 0.75 0.765625 1.8125q0 1.0625 -0.765625 1.828125q-0.75 0.75 -1.828125 0.75q-1.046875 0 -1.8125 -0.75q-0.75 -0.75 -0.75 -1.828125zm1.015625 0q0 0.65625 0.453125 1.125q0.46875 0.453125 1.109375 0.453125q0.640625 0 1.09375 -0.453125q0.46875 -0.46875 0.46875 -1.125q0 -0.640625 -0.46875 -1.09375q-0.453125 -0.46875 -1.09375 -0.46875q-0.640625 0 -1.109375 0.46875q-0.453125 0.453125 -0.453125 1.09375z" fill-rule="nonzero"></path><path fill="#000000" fill-opacity="0.0" d="m321.3071 235.37007l61.480316 0l0 48.000015l-61.480316 0z" fill-rule="nonzero"></path><path fill="#000000" d="m347.5238 262.29007l3.59375 -5.125l-3.328125 -4.734375l2.09375 0l1.515625 2.3125q0.421875 0.65625 0.671875 1.109375q0.421875 -0.609375 0.765625 -1.09375l1.65625 -2.328125l1.984375 0l-3.390625 4.640625l3.65625 5.21875l-2.046875 0l-2.03125 -3.0625l-0.53125 -0.828125l-2.59375 3.890625l-2.015625 0z" fill-rule="nonzero"></path></g></svg>

