<?xml version="1.0" standalone="yes"?>

<svg version="1.1" viewBox="0.0 0.0 960.0 720.0" fill="none" stroke="none" stroke-linecap="square" stroke-miterlimit="10" xmlns="http://www.w3.org/2000/svg" xmlns:xlink="http://www.w3.org/1999/xlink"><clipPath id="p.0"><path d="m0 0l960.0 0l0 720.0l-960.0 0l0 -720.0z" clip-rule="nonzero"></path></clipPath><g clip-path="url(#p.0)"><path fill="#000000" fill-opacity="0.0" d="m0 0l960.0 0l0 720.0l-960.0 0z" fill-rule="nonzero"></path><path fill="#000000" fill-opacity="0.0" d="m444.16833 191.8042l204.69293 118.17322l-322.86615 86.519684z" fill-rule="nonzero"></path><path stroke="#000000" stroke-width="2.0" stroke-linejoin="round" stroke-linecap="butt" d="m444.16833 191.8042l204.69293 118.17322l-322.86615 86.519684z" fill-rule="nonzero"></path><path fill="#000000" fill-opacity="0.0" d="m444.16833 191.8042l43.259857 161.43307" fill-rule="nonzero"></path><path stroke="#000000" stroke-width="2.0" stroke-linejoin="round" stroke-linecap="butt" d="m444.16833 191.8042l43.259857 161.43307" fill-rule="nonzero"></path><path fill="#000000" fill-opacity="0.0" d="m428.5502 264.62228l43.307068 0l0.03149414 48.031494l-43.307068 0z" fill-rule="nonzero"></path><path fill="#000000" d="m444.64597 291.5423l-1.671875 0l-0.006958008 -10.640625q-0.5933838 0.578125 -1.5773926 1.15625q-0.9840088 0.5625 -1.7650452 0.859375l-0.0010681152 -1.625q1.4058228 -0.65625 2.4520874 -1.59375q1.0462646 -0.9375 1.4831848 -1.8125l1.078125 0l0.00894165 13.65625zm4.196106 -11.8125l-0.0010681152 -1.609375l8.796875 0l8.544922E-4 1.296875q-1.2959595 1.375 -2.575714 3.671875q-1.2641296 2.296875 -1.9656677 4.71875q-0.49887085 1.703125 -0.6381531 3.734375l-1.71875 0q0.030181885 -1.609375 0.6224365 -3.875q0.60787964 -2.28125 1.7315063 -4.390625q1.1392517 -2.109375 2.4039307 -3.546875l-6.65625 0z" fill-rule="nonzero"></path><path fill="#000000" fill-opacity="0.0" d="m468.41486 354.82404l43.307068 0l0 36.22049l-43.307068 0z" fill-rule="nonzero"></path><path fill="#000000" d="m480.48956 378.1503l1.671875 -0.21875q0.28125 1.421875 0.96875 2.046875q0.703125 0.625 1.6875 0.625q1.1875 0 2.0 -0.8125q0.8125 -0.828125 0.8125 -2.03125q0 -1.140625 -0.765625 -1.890625q-0.75 -0.75 -1.90625 -0.75q-0.46875 0 -1.171875 0.1875l0.1875 -1.46875q0.15625 0.015625 0.265625 0.015625q1.0625 0 1.90625 -0.546875q0.859375 -0.5625 0.859375 -1.71875q0 -0.921875 -0.625 -1.515625q-0.609375 -0.609375 -1.59375 -0.609375q-0.96875 0 -1.625 0.609375q-0.640625 0.609375 -0.828125 1.84375l-1.671875 -0.296875q0.296875 -1.6875 1.375 -2.609375q1.09375 -0.921875 2.71875 -0.921875q1.109375 0 2.046875 0.484375q0.9375 0.46875 1.421875 1.296875q0.5 0.828125 0.5 1.75q0 0.890625 -0.46875 1.609375q-0.46875 0.71875 -1.40625 1.15625q1.21875 0.265625 1.875 1.15625q0.671875 0.875 0.671875 2.1875q0 1.78125 -1.296875 3.015625q-1.296875 1.234375 -3.28125 1.234375q-1.796875 0 -2.984375 -1.0625q-1.171875 -1.0625 -1.34375 -2.765625zm15.719452 3.59375l0 -3.25l-5.90625 0l0 -1.53125l6.21875 -8.8125l1.359375 0l0 8.8125l1.84375 0l0 1.53125l-1.84375 0l0 3.25l-1.671875 0zm0 -4.78125l0 -6.140625l-4.25 6.140625l4.25 0z" fill-rule="nonzero"></path><path fill="#000000" fill-opacity="0.0" d="m510.3736 365.42538l138.48816 -39.338593" fill-rule="nonzero"></path><path stroke="#000000" stroke-width="2.0" stroke-linejoin="round" stroke-linecap="butt" d="m510.3736 365.42535l126.944885 -36.05957" fill-rule="evenodd"></path><path fill="#000000" stroke="#000000" stroke-width="2.0" stroke-linecap="butt" d="m638.2211 332.54352l7.828125 -5.6578064l-9.633423 -0.6976929z" fill-rule="evenodd"></path><path fill="#000000" fill-opacity="0.0" d="m465.58517 377.4264l-132.40945 35.77954" fill-rule="nonzero"></path><path stroke="#000000" stroke-width="2.0" stroke-linejoin="round" stroke-linecap="butt" d="m465.58517 377.4264l-120.82495 32.64914" fill-rule="evenodd"></path><path fill="#000000" stroke="#000000" stroke-width="2.0" stroke-linecap="butt" d="m343.89847 406.88647l-7.900177 5.556732l9.623688 0.82144165z" fill-rule="evenodd"></path><path fill="#000000" fill-opacity="0.0" d="m457.79404 335.7332l22.992126 -6.173218l6.173218 23.02362l-22.992096 6.173218z" fill-rule="nonzero"></path><path stroke="#000000" stroke-width="2.0" stroke-linejoin="round" stroke-linecap="butt" d="m457.79404 335.7332l22.992126 -6.173218l6.173218 23.02362l-22.992096 6.173218z" fill-rule="nonzero"></path></g></svg>

