<svg width="40" height="40" viewBox="0 0 40 40" fill="none" xmlns="http://www.w3.org/2000/svg">
<path fill-rule="evenodd" clip-rule="evenodd" d="M11.5126 4.99996V8.33329C11.5126 9.24996 12.2626 9.99996 13.1793 9.99996C14.0959 9.99996 14.8459 9.24996 14.8459 8.33329V6.66663H31.5126V33.3333H14.8459V31.6666C14.8459 30.75 14.0959 30 13.1793 30C12.2626 30 11.5126 30.75 11.5126 31.6666V35C11.5126 36.8333 13.0126 38.3333 14.8459 38.3333H31.5126C33.3459 38.3333 34.8459 36.8333 34.8459 35V4.99996C34.8459 3.16663 33.3459 1.66663 31.5126 1.66663H14.8459C13.0126 1.66663 11.5126 3.16663 11.5126 4.99996ZM15.6792 25.8333C16.1626 25.6333 16.5959 25.35 17.0126 25.0333L16.9792 25.0833L18.6626 25.7333C19.0459 25.8833 19.4792 25.7333 19.6792 25.3666L21.0792 22.9333C21.2792 22.5833 21.1959 22.1166 20.8792 21.8666L19.4626 20.7333L19.4292 20.7833C19.4376 20.7166 19.447 20.65 19.4563 20.5833C19.4845 20.3833 19.5126 20.1833 19.5126 19.9833C19.5126 19.7833 19.4845 19.5833 19.4563 19.3833C19.447 19.3166 19.4376 19.25 19.4292 19.1833L19.4626 19.2333L20.8792 18.1C21.1959 17.85 21.2792 17.3833 21.0792 17.0333L19.6792 14.6C19.4792 14.25 19.0459 14.0833 18.6626 14.2333L16.9792 14.8833L17.0126 14.9333C16.5959 14.65 16.1626 14.3666 15.6792 14.1666L15.3959 12.3666C15.3459 11.9666 14.9959 11.6666 14.5792 11.6666H11.7792C11.3626 11.6666 11.0126 11.9666 10.9626 12.3666L10.6792 14.1666C10.1959 14.3666 9.76258 14.65 9.34591 14.9666L9.37924 14.9166L7.67925 14.2666C7.29591 14.1166 6.86258 14.2666 6.66258 14.6333L5.26258 17.0666C5.06258 17.4166 5.14591 17.8833 5.46258 18.1333L6.87925 19.2666L6.91258 19.2166C6.90519 19.272 6.89699 19.3282 6.88869 19.3851C6.85954 19.5848 6.82925 19.7924 6.82925 20C6.82925 20.2 6.85737 20.4 6.8855 20.6C6.89487 20.6666 6.90425 20.7333 6.91258 20.8L6.87925 20.75L5.46258 21.8833C5.14591 22.1333 5.06258 22.6 5.26258 22.95L6.66258 25.3833C6.86258 25.7333 7.29591 25.9 7.67925 25.75L9.36258 25.1L9.34591 25.0333C9.76258 25.35 10.1959 25.6333 10.6792 25.8333L10.9626 27.6166C11.0126 28.0333 11.3626 28.3333 11.7792 28.3333H14.5792C14.9959 28.3333 15.3459 28.0333 15.3959 27.6333L15.6792 25.8333ZM13.1793 16.6666C11.3459 16.6666 9.84593 18.1666 9.84593 20C9.84593 21.8333 11.3459 23.3333 13.1793 23.3333C15.0126 23.3333 16.5126 21.8333 16.5126 20C16.5126 18.1666 15.0126 16.6666 13.1793 16.6666Z" fill="white"/>
</svg>
