<?xml version="1.0" standalone="yes"?>

<svg version="1.1" viewBox="0.0 0.0 960.0 720.0" fill="none" stroke="none" stroke-linecap="square" stroke-miterlimit="10" xmlns="http://www.w3.org/2000/svg" xmlns:xlink="http://www.w3.org/1999/xlink"><clipPath id="p.0"><path d="m0 0l960.0 0l0 720.0l-960.0 0l0 -720.0z" clip-rule="nonzero"></path></clipPath><g clip-path="url(#p.0)"><path fill="#000000" fill-opacity="0.0" d="m0 0l960.0 0l0 720.0l-960.0 0z" fill-rule="nonzero"></path><path fill="#000000" fill-opacity="0.0" d="m298.28348 405.66928l363.43307 0" fill-rule="nonzero"></path><path stroke="#000000" stroke-width="2.0" stroke-linejoin="round" stroke-linecap="butt" d="m298.28348 405.66928l363.43307 0" fill-rule="nonzero"></path><path fill="#000000" fill-opacity="0.0" d="m503.21783 405.66928l-158.2362 -91.33856" fill-rule="nonzero"></path><path stroke="#000000" stroke-width="2.0" stroke-linejoin="round" stroke-linecap="butt" d="m503.21783 405.66928l-158.2362 -91.33856" fill-rule="nonzero"></path><path fill="#000000" fill-opacity="0.0" d="m495.21783 365.66928l384.0 0l0 48.0l-384.0 0z" fill-rule="nonzero"></path><path fill="#000000" d="m511.29596 392.5893l-1.671875 0l0 -10.640625q-0.59375 0.578125 -1.578125 1.15625q-0.984375 0.5625 -1.765625 0.859375l0 -1.625q1.40625 -0.65625 2.453125 -1.59375q1.046875 -0.9375 1.484375 -1.8125l1.078125 0l0 13.65625zm12.860107 -1.609375l0 1.609375l-8.984375 0q-0.015625 -0.609375 0.1875 -1.15625q0.34375 -0.921875 1.09375 -1.8125q0.765625 -0.890625 2.1875 -2.0625q2.21875 -1.8125 3.0 -2.875q0.78125 -1.0625 0.78125 -2.015625q0 -0.984375 -0.71875 -1.671875q-0.703125 -0.6875 -1.84375 -0.6875q-1.203125 0 -1.9375 0.734375q-0.71875 0.71875 -0.71875 2.0l-1.71875 -0.171875q0.171875 -1.921875 1.328125 -2.921875q1.15625 -1.015625 3.09375 -1.015625q1.953125 0 3.09375 1.09375q1.140625 1.078125 1.140625 2.6875q0 0.8125 -0.34375 1.609375q-0.328125 0.78125 -1.109375 1.65625q-0.765625 0.859375 -2.5625 2.390625q-1.5 1.265625 -1.9375 1.71875q-0.421875 0.4375 -0.703125 0.890625l6.671875 0zm1.5944824 -5.09375q0 -2.421875 0.5 -3.890625q0.5 -1.46875 1.46875 -2.265625q0.984375 -0.796875 2.46875 -0.796875q1.09375 0 1.921875 0.4375q0.828125 0.4375 1.359375 1.28125q0.546875 0.828125 0.84375 2.015625q0.3125 1.1875 0.3125 3.21875q0 2.390625 -0.5 3.859375q-0.484375 1.46875 -1.46875 2.28125q-0.96875 0.796875 -2.46875 0.796875q-1.96875 0 -3.078125 -1.40625q-1.359375 -1.703125 -1.359375 -5.53125zm1.71875 0q0 3.34375 0.78125 4.453125q0.796875 1.109375 1.9375 1.109375q1.15625 0 1.9375 -1.109375q0.78125 -1.125 0.78125 -4.453125q0 -3.359375 -0.78125 -4.46875q-0.78125 -1.109375 -1.953125 -1.109375q-1.15625 0 -1.828125 0.984375q-0.875 1.234375 -0.875 4.59375z" fill-rule="nonzero"></path><path fill="#ffffff" d="m535.345 375.69867l7.4606934 0l0 21.453125l-7.4606934 0l0 -21.453125z" fill-rule="nonzero"></path><path fill="#000000" d="m536.5325 381.32367q0 -1.0625 0.75 -1.8125q0.765625 -0.75 1.8125 -0.75q1.078125 0 1.828125 0.75q0.765625 0.75 0.765625 1.8125q0 1.0625 -0.765625 1.828125q-0.75 0.75 -1.828125 0.75q-1.046875 0 -1.8125 -0.75q-0.75 -0.75 -0.75 -1.828125zm1.015625 0q0 0.65625 0.453125 1.125q0.46875 0.453125 1.109375 0.453125q0.640625 0 1.09375 -0.453125q0.46875 -0.46875 0.46875 -1.125q0 -0.640625 -0.46875 -1.09375q-0.453125 -0.46875 -1.09375 -0.46875q-0.640625 0 -1.109375 0.46875q-0.453125 0.453125 -0.453125 1.09375z" fill-rule="nonzero"></path><path fill="#000000" fill-opacity="0.0" d="m391.21783 365.66928l69.60632 0l0 48.0l-69.60632 0z" fill-rule="nonzero"></path><path fill="#000000" d="m421.49756 392.5893l3.59375 -5.125l-3.328125 -4.734375l2.09375 0l1.515625 2.3125q0.421875 0.65625 0.671875 1.109375q0.421875 -0.609375 0.765625 -1.09375l1.65625 -2.328125l1.984375 0l-3.390625 4.640625l3.65625 5.21875l-2.046875 0l-2.03125 -3.0625l-0.53125 -0.828125l-2.59375 3.890625l-2.015625 0z" fill-rule="nonzero"></path></g></svg>

