<svg width="40" height="40" viewBox="0 0 40 40" fill="none" xmlns="http://www.w3.org/2000/svg">
<path d="M10.6667 9.33333C10.6667 10.0697 10.0697 10.6667 9.33333 10.6667C8.59695 10.6667 8 10.0697 8 9.33333C8 8.59695 8.59695 8 9.33333 8C10.0697 8 10.6667 8.59695 10.6667 9.33333Z" fill="white"/>
<path d="M16 9.33333C16 10.0697 15.403 10.6667 14.6667 10.6667C13.9303 10.6667 13.3333 10.0697 13.3333 9.33333C13.3333 8.59695 13.9303 8 14.6667 8C15.403 8 16 8.59695 16 9.33333Z" fill="white"/>
<path d="M20 10.6667C20.7364 10.6667 21.3333 10.0697 21.3333 9.33333C21.3333 8.59695 20.7364 8 20 8C19.2636 8 18.6667 8.59695 18.6667 9.33333C18.6667 10.0697 19.2636 10.6667 20 10.6667Z" fill="white"/>
<path d="M26.6667 9.33333C26.6667 10.0697 26.0697 10.6667 25.3333 10.6667C24.597 10.6667 24 10.0697 24 9.33333C24 8.59695 24.597 8 25.3333 8C26.0697 8 26.6667 8.59695 26.6667 9.33333Z" fill="white"/>
<path d="M30.6667 10.6667C31.403 10.6667 32 10.0697 32 9.33333C32 8.59695 31.403 8 30.6667 8C29.9303 8 29.3333 8.59695 29.3333 9.33333C29.3333 10.0697 29.9303 10.6667 30.6667 10.6667Z" fill="white"/>
<path d="M10.6667 30.6667C10.6667 31.403 10.0697 32 9.33333 32C8.59695 32 8 31.403 8 30.6667C8 29.9303 8.59695 29.3333 9.33333 29.3333C10.0697 29.3333 10.6667 29.9303 10.6667 30.6667Z" fill="white"/>
<path d="M16 30.6667C16 31.403 15.403 32 14.6667 32C13.9303 32 13.3333 31.403 13.3333 30.6667C13.3333 29.9303 13.9303 29.3333 14.6667 29.3333C15.403 29.3333 16 29.9303 16 30.6667Z" fill="white"/>
<path d="M20 32C20.7364 32 21.3333 31.403 21.3333 30.6667C21.3333 29.9303 20.7364 29.3333 20 29.3333C19.2636 29.3333 18.6667 29.9303 18.6667 30.6667C18.6667 31.403 19.2636 32 20 32Z" fill="white"/>
<path d="M26.6667 30.6667C26.6667 31.403 26.0697 32 25.3333 32C24.597 32 24 31.403 24 30.6667C24 29.9303 24.597 29.3333 25.3333 29.3333C26.0697 29.3333 26.6667 29.9303 26.6667 30.6667Z" fill="white"/>
<path d="M30.6667 32C31.403 32 32 31.403 32 30.6667C32 29.9303 31.403 29.3333 30.6667 29.3333C29.9303 29.3333 29.3333 29.9303 29.3333 30.6667C29.3333 31.403 29.9303 32 30.6667 32Z" fill="white"/>
<path d="M10.6667 20C11.403 20 12 19.403 12 18.6667C12 17.9303 11.403 17.3333 10.6667 17.3333C9.93029 17.3333 9.33333 17.9303 9.33333 18.6667C9.33333 19.403 9.93029 20 10.6667 20Z" fill="white"/>
<path d="M30.6667 21.3333C30.6667 22.0697 30.0697 22.6667 29.3333 22.6667C28.597 22.6667 28 22.0697 28 21.3333C28 20.597 28.597 20 29.3333 20C30.0697 20 30.6667 20.597 30.6667 21.3333Z" fill="white"/>
<path fill-rule="evenodd" clip-rule="evenodd" d="M4 16C4 13.7909 5.79086 12 8 12H32C34.2091 12 36 13.7909 36 16V24C36 26.2091 34.2091 28 32 28H8C5.79086 28 4 26.2091 4 24V16ZM8 14.6667H32C32.7364 14.6667 33.3333 15.2636 33.3333 16V24C33.3333 24.7364 32.7364 25.3333 32 25.3333H8C7.26362 25.3333 6.66667 24.7364 6.66667 24V16C6.66667 15.2636 7.26362 14.6667 8 14.6667Z" fill="white"/>
</svg>
