<svg width="40" height="40" viewBox="0 0 40 40" fill="none" xmlns="http://www.w3.org/2000/svg">
<path fill-rule="evenodd" clip-rule="evenodd" d="M23.8414 21.8349C25.3423 23.3463 25.66 25.5981 24.7943 27.4228L27.2886 29.9345C27.9232 30.5736 27.9232 31.6097 27.2886 32.2487C26.654 32.8877 25.6251 32.8877 24.9905 32.2487L22.4962 29.737C20.6842 30.6087 18.4481 30.2889 16.9471 28.7774C15.0433 26.8603 15.0433 23.7521 16.9471 21.8349C18.851 19.9178 21.9376 19.9178 23.8414 21.8349ZM21.5433 26.4633C22.1779 25.8242 22.1779 24.7882 21.5433 24.1491C20.9087 23.5101 19.8798 23.5101 19.2452 24.1491C18.6106 24.7882 18.6106 25.8242 19.2452 26.4633C19.8798 27.1023 20.9087 27.1023 21.5433 26.4633Z" fill="white"/>
<path d="M13.5 8.54545H26.5V11.8182H13.5V8.54545Z" fill="white"/>
<path d="M26.5 15.0909H13.5V18.3636H26.5V15.0909Z" fill="white"/>
<path fill-rule="evenodd" clip-rule="evenodd" d="M7 6.90909C7 4.19787 9.18261 2 11.875 2H28.125C30.8174 2 33 4.19788 33 6.90909V33.0909C33 35.8021 30.8174 38 28.125 38H11.875C9.18261 38 7 35.8021 7 33.0909V6.90909ZM11.875 5.27273H28.125C29.0225 5.27273 29.75 6.00535 29.75 6.90909V33.0909C29.75 33.9946 29.0225 34.7273 28.125 34.7273H11.875C10.9775 34.7273 10.25 33.9946 10.25 33.0909V6.90909C10.25 6.00535 10.9775 5.27273 11.875 5.27273Z" fill="white"/>
</svg>
