<svg width="26" height="32" viewBox="0 0 26 32" fill="none" xmlns="http://www.w3.org/2000/svg">
<path d="M20.2222 5.81818H5.77778V8.72727H20.2222V5.81818Z" fill="white"/>
<path d="M5.77778 11.6364H8.66667V14.5455H5.77778V11.6364Z" fill="white"/>
<path d="M8.66667 17.4545H5.77778V20.3636H8.66667V17.4545Z" fill="white"/>
<path d="M5.77778 23.2727H8.66667V26.1818H5.77778V23.2727Z" fill="white"/>
<path d="M14.4444 11.6364H11.5556V14.5455H14.4444V11.6364Z" fill="white"/>
<path d="M11.5556 17.4545H14.4444V20.3636H11.5556V17.4545Z" fill="white"/>
<path d="M14.4444 23.2727H11.5556V26.1818H14.4444V23.2727Z" fill="white"/>
<path d="M17.3333 11.6364H20.2222V14.5455H17.3333V11.6364Z" fill="white"/>
<path d="M20.2222 17.4545H17.3333V26.1818H20.2222V17.4545Z" fill="white"/>
<path fill-rule="evenodd" clip-rule="evenodd" d="M0 2.90909C0 1.30244 1.2934 0 2.88889 0H23.1111C24.7066 0 26 1.30244 26 2.90909V29.0909C26 30.6976 24.7066 32 23.1111 32H2.88889C1.2934 32 0 30.6976 0 29.0909V2.90909ZM2.88889 2.90909H23.1111V29.0909H2.88889V2.90909Z" fill="white"/>
</svg>
