<svg width="40" height="40" viewBox="0 0 40 40" fill="none" xmlns="http://www.w3.org/2000/svg">
<path d="M33.3333 19.1667H30.8333V12.5C30.8333 10.6667 29.3333 9.16667 27.5 9.16667H20.8333V6.66667C20.8333 4.36667 18.9667 2.5 16.6667 2.5C14.3667 2.5 12.5 4.36667 12.5 6.66667V9.16667H5.83333C4 9.16667 2.51667 10.6667 2.51667 12.5V18.8333H5C7.48333 18.8333 9.5 20.85 9.5 23.3333C9.5 25.8167 7.48333 27.8333 5 27.8333H2.5V34.1667C2.5 36 4 37.5 5.83333 37.5H12.1667V35C12.1667 32.5167 14.1833 30.5 16.6667 30.5C19.15 30.5 21.1667 32.5167 21.1667 35V37.5H27.5C29.3333 37.5 30.8333 36 30.8333 34.1667V27.5H33.3333C35.6333 27.5 37.5 25.6333 37.5 23.3333C37.5 21.0333 35.6333 19.1667 33.3333 19.1667Z" fill="white"/>
</svg>
