<svg width="40" height="40" viewBox="0 0 40 40" fill="none" xmlns="http://www.w3.org/2000/svg">
<rect opacity="0.5" x="13.3335" y="15.6364" width="13.3333" height="14.5455" rx="1" fill="white"/>
<path fill-rule="evenodd" clip-rule="evenodd" d="M28 6.90909H12C11.2636 6.90909 10.6667 7.56031 10.6667 8.36364V31.6364C10.6667 32.4397 11.2636 33.0909 12 33.0909H28C28.7364 33.0909 29.3333 32.4397 29.3333 31.6364V8.36364C29.3333 7.56031 28.7364 6.90909 28 6.90909ZM12 4C9.79086 4 8 5.95367 8 8.36364V31.6364C8 34.0463 9.79086 36 12 36H28C30.2091 36 32 34.0463 32 31.6364V8.36364C32 5.95367 30.2091 4 28 4H12Z" fill="white"/>
<path d="M13.3333 11.2727C13.3333 10.4694 13.9303 9.81818 14.6667 9.81818H20C20.7364 9.81818 21.3333 10.4694 21.3333 11.2727C21.3333 12.0761 20.7364 12.7273 20 12.7273H14.6667C13.9303 12.7273 13.3333 12.0761 13.3333 11.2727Z" fill="white"/>
</svg>
