<svg width="40" height="40" viewBox="0 0 40 40" fill="none" xmlns="http://www.w3.org/2000/svg">
<path fill-rule="evenodd" clip-rule="evenodd" d="M25 8.15454C25 10.9212 22.7667 13.1545 20 13.1545C17.2333 13.1545 15 10.9212 15 8.15454C15 5.38787 17.2333 3.15454 20 3.15454C22.7667 3.15454 25 5.38787 25 8.15454ZM8.86667 13.4879C13.1333 14.2545 16.9667 16.2379 20 19.0712C23.0333 16.2379 26.8667 14.2545 31.1333 13.4879C33.15 13.1379 35 14.7379 35 16.7879V28.3212C35 29.9212 33.7167 31.4712 32.15 31.6879C27.95 32.2212 24.1333 33.9712 21.0167 36.5212C20.4333 36.9879 19.4833 36.9379 18.9 36.4545C15.8 33.9212 12.0167 32.2045 7.85 31.6712C6.2 31.4545 5 29.9879 5 27.1879V16.7879C5 14.7379 6.85 13.1379 8.86667 13.4879Z" fill="white"/>
</svg>
